<svg xmlns="http://www.w3.org/2000/svg" version="1.1" xmlns:xlink="http://www.w3.org/1999/xlink" xmlns:svgjs="http://svgjs.com/svgjs" width="1440" height="560" preserveAspectRatio="none" viewBox="0 0 1440 560"><g mask="url(&quot;#SvgjsMask1028&quot;)" fill="none"><rect width="1440" height="560" x="0" y="0" fill="rgba(58, 141, 228, 1)"></rect><path d="M0,502.528C101.987,511.839,203.648,502.98,298.62,464.662C408.244,420.433,515.624,363.072,584.234,266.811C660.461,159.864,726.816,28.02,701.721,-100.892C676.801,-228.908,562.09,-319.559,455.468,-394.665C364.82,-458.518,248.259,-453.271,144.812,-493.184C28.67,-537.996,-65.365,-658.779,-188.883,-643.277C-313.477,-627.64,-420.63,-526.18,-478.835,-414.913C-533.21,-310.968,-491.504,-187.528,-488.637,-70.255C-486.283,26.017,-503.872,124.244,-463.516,211.681C-423.241,298.942,-346.928,362.075,-265.52,413.157C-184.782,463.818,-94.921,493.862,0,502.528" fill="#1b6cc2"></path><path d="M1440 887.062C1500.407 887.3109999999999 1547.416 838.846 1597.459 805.011 1646.304 771.986 1692.859 738.656 1728.722 691.855 1772.645 634.535 1844.267 574.568 1827.9479999999999 504.222 1811.287 432.405 1708.135 424.796 1654.929 373.76300000000003 1608.694 329.416 1599.511 244.151 1538.029 226.142 1476.544 208.132 1418.935 262.36 1359.945 287.359 1308.198 309.288 1251.371 322.21299999999997 1213.449 363.693 1175.0230000000001 405.724 1152.187 461.296 1148.949 518.153 1145.847 572.619 1172.685 622.109 1195.92 671.468 1218.894 720.273 1242.944 768.005 1283.373 803.716 1328.614 843.677 1379.638 886.813 1440 887.062" fill="#74afec"></path></g><defs><mask id="SvgjsMask1028"><rect width="1440" height="560" fill="#ffffff"></rect></mask></defs></svg>